<mxfile host="65bd71144e">
    <diagram id="kldG0cRUDw7tCzsneLL4" name="Page-1">
        <mxGraphModel dx="2285" dy="1155" grid="1" gridSize="10" guides="1" tooltips="1" connect="1" arrows="1" fold="1" page="1" pageScale="1" pageWidth="2000" pageHeight="2000" math="0" shadow="0">
            <root>
                <mxCell id="0"/>
                <mxCell id="1" parent="0"/>
                <mxCell id="83" value="" style="rounded=0;whiteSpace=wrap;html=1;glass=0;fillStyle=solid;strokeColor=default;fillColor=default;gradientColor=none;gradientDirection=north;" vertex="1" parent="1">
                    <mxGeometry x="380" y="1030" width="1020" height="450" as="geometry"/>
                </mxCell>
                <mxCell id="84" value="&lt;h1&gt;Scripts For XR Origin&lt;/h1&gt;" style="text;html=1;strokeColor=none;fillColor=none;spacing=5;spacingTop=-20;whiteSpace=wrap;overflow=hidden;rounded=0;glass=0;fillStyle=solid;" vertex="1" parent="1">
                    <mxGeometry x="480" y="1080" width="290" height="60" as="geometry"/>
                </mxCell>
                <mxCell id="85" style="edgeStyle=none;html=1;exitX=0.5;exitY=1;exitDx=0;exitDy=0;entryX=0.5;entryY=0;entryDx=0;entryDy=0;" edge="1" parent="1" source="91" target="92">
                    <mxGeometry relative="1" as="geometry">
                        <Array as="points">
                            <mxPoint x="463.75" y="1250"/>
                        </Array>
                    </mxGeometry>
                </mxCell>
                <mxCell id="86" style="edgeStyle=none;html=1;exitX=0.5;exitY=1;exitDx=0;exitDy=0;entryX=0.5;entryY=0;entryDx=0;entryDy=0;" edge="1" parent="1" source="91" target="94">
                    <mxGeometry relative="1" as="geometry">
                        <Array as="points">
                            <mxPoint x="609" y="1255"/>
                        </Array>
                    </mxGeometry>
                </mxCell>
                <mxCell id="87" style="edgeStyle=none;html=1;exitX=0.5;exitY=1;exitDx=0;exitDy=0;entryX=0.5;entryY=0;entryDx=0;entryDy=0;fontColor=#FFFFFF;" edge="1" parent="1" source="91" target="98">
                    <mxGeometry relative="1" as="geometry">
                        <Array as="points">
                            <mxPoint x="863.75" y="1250"/>
                        </Array>
                    </mxGeometry>
                </mxCell>
                <mxCell id="88" style="edgeStyle=none;html=1;exitX=0.5;exitY=1;exitDx=0;exitDy=0;entryX=0.5;entryY=0;entryDx=0;entryDy=0;" edge="1" parent="1" source="91" target="101">
                    <mxGeometry relative="1" as="geometry">
                        <Array as="points">
                            <mxPoint x="1000" y="1255"/>
                        </Array>
                    </mxGeometry>
                </mxCell>
                <mxCell id="89" style="edgeStyle=none;html=1;exitX=0.5;exitY=1;exitDx=0;exitDy=0;entryX=0.5;entryY=0;entryDx=0;entryDy=0;" edge="1" parent="1" source="91" target="103">
                    <mxGeometry relative="1" as="geometry">
                        <Array as="points">
                            <mxPoint x="1140" y="1255"/>
                        </Array>
                    </mxGeometry>
                </mxCell>
                <mxCell id="90" style="edgeStyle=none;html=1;exitX=0.5;exitY=1;exitDx=0;exitDy=0;entryX=0.5;entryY=0;entryDx=0;entryDy=0;" edge="1" parent="1" source="91" target="105">
                    <mxGeometry relative="1" as="geometry">
                        <Array as="points">
                            <mxPoint x="1280" y="1255"/>
                        </Array>
                    </mxGeometry>
                </mxCell>
                <mxCell id="91" value="MonoBehaviour" style="rounded=1;whiteSpace=wrap;html=1;fillColor=#6a00ff;fontColor=#ffffff;strokeColor=#3700CC;" vertex="1" parent="1">
                    <mxGeometry x="683.75" y="1170" width="120" height="60" as="geometry"/>
                </mxCell>
                <mxCell id="92" value="Toggle Ray" style="rounded=1;whiteSpace=wrap;html=1;glass=0;fillStyle=solid;strokeColor=#B20000;fillColor=#e51400;gradientDirection=north;fontColor=#ffffff;" vertex="1" parent="1">
                    <mxGeometry x="413.75" y="1290" width="100" height="60" as="geometry"/>
                </mxCell>
                <mxCell id="93" value="Switch between Direct and Ray Interactors" style="text;html=1;strokeColor=none;fillColor=none;align=center;verticalAlign=middle;whiteSpace=wrap;rounded=0;" vertex="1" parent="1">
                    <mxGeometry x="406.25" y="1360" width="115" height="70" as="geometry"/>
                </mxCell>
                <mxCell id="94" value="AnimateHand&lt;br&gt;Controller" style="rounded=1;whiteSpace=wrap;html=1;glass=0;fillStyle=solid;strokeColor=#B09500;fillColor=#e3c800;gradientDirection=north;fontColor=#000000;" vertex="1" parent="1">
                    <mxGeometry x="558.75" y="1290" width="100" height="60" as="geometry"/>
                </mxCell>
                <mxCell id="95" value="Adapter to open source Oculus hand&lt;br&gt;Model and Animations" style="text;html=1;strokeColor=none;fillColor=none;align=center;verticalAlign=middle;whiteSpace=wrap;rounded=0;" vertex="1" parent="1">
                    <mxGeometry x="541.25" y="1360" width="115" height="70" as="geometry"/>
                </mxCell>
                <mxCell id="96" style="edgeStyle=none;html=1;entryX=0.5;entryY=0;entryDx=0;entryDy=0;exitX=0.5;exitY=1;exitDx=0;exitDy=0;" edge="1" parent="1" source="91">
                    <mxGeometry relative="1" as="geometry">
                        <mxPoint x="613.75" y="1230" as="sourcePoint"/>
                        <mxPoint x="743.75" y="1290" as="targetPoint"/>
                        <Array as="points">
                            <mxPoint x="743.75" y="1250"/>
                        </Array>
                    </mxGeometry>
                </mxCell>
                <mxCell id="97" value="Update the camera position in each frame, rather than during only position change" style="text;html=1;strokeColor=none;fillColor=none;align=center;verticalAlign=middle;whiteSpace=wrap;rounded=0;" vertex="1" parent="1">
                    <mxGeometry x="686.25" y="1360" width="115" height="70" as="geometry"/>
                </mxCell>
                <mxCell id="98" value="&lt;div style=&quot;text-align: left;&quot;&gt;&lt;span style=&quot;background-color: initial;&quot;&gt;&lt;font color=&quot;#ffffff&quot;&gt;Dynamic&lt;/font&gt;&lt;/span&gt;&lt;/div&gt;&lt;div style=&quot;text-align: left;&quot;&gt;&lt;span style=&quot;background-color: initial;&quot;&gt;&lt;font color=&quot;#ffffff&quot;&gt;&amp;nbsp;Move&amp;nbsp;&lt;/font&gt;&lt;/span&gt;&lt;/div&gt;&lt;div style=&quot;text-align: left;&quot;&gt;&lt;span style=&quot;background-color: initial;&quot;&gt;&lt;font color=&quot;#ffffff&quot;&gt;Provider&lt;/font&gt;&lt;/span&gt;&lt;/div&gt;" style="rounded=1;whiteSpace=wrap;html=1;glass=0;fillStyle=solid;strokeColor=#B20000;fillColor=#e51400;gradientDirection=north;fontColor=#ffffff;" vertex="1" parent="1">
                    <mxGeometry x="816.25" y="1290" width="100" height="60" as="geometry"/>
                </mxCell>
                <mxCell id="99" value="Update the camera position in each frame, rather than during only position change" style="text;html=1;strokeColor=none;fillColor=none;align=center;verticalAlign=middle;whiteSpace=wrap;rounded=0;" vertex="1" parent="1">
                    <mxGeometry x="808.75" y="1360" width="115" height="70" as="geometry"/>
                </mxCell>
                <mxCell id="100" value="Custom Character&lt;br&gt;Controller Driver" style="rounded=1;whiteSpace=wrap;html=1;glass=0;fillStyle=solid;strokeColor=#B20000;fillColor=#e51400;gradientDirection=north;fontColor=#ffffff;" vertex="1" parent="1">
                    <mxGeometry x="693.75" y="1290" width="100" height="60" as="geometry"/>
                </mxCell>
                <mxCell id="101" value="ClimbProvider" style="rounded=1;whiteSpace=wrap;html=1;glass=0;fillStyle=solid;strokeColor=#B09500;fillColor=#e3c800;gradientDirection=north;fontColor=#000000;" vertex="1" parent="1">
                    <mxGeometry x="950" y="1290" width="100" height="60" as="geometry"/>
                </mxCell>
                <mxCell id="102" value="Handles the ClimbEvent and provide the motion(REQUIRES CUSTOME INPUTATION)" style="text;html=1;strokeColor=none;fillColor=none;align=center;verticalAlign=middle;whiteSpace=wrap;rounded=0;" vertex="1" parent="1">
                    <mxGeometry x="942.5" y="1360" width="115" height="70" as="geometry"/>
                </mxCell>
                <mxCell id="103" value="ClimbGravity&lt;br&gt;Controller" style="rounded=1;whiteSpace=wrap;html=1;glass=0;fillStyle=solid;strokeColor=#B09500;fillColor=#e3c800;gradientDirection=north;fontColor=#000000;" vertex="1" parent="1">
                    <mxGeometry x="1090" y="1290" width="100" height="60" as="geometry"/>
                </mxCell>
                <mxCell id="104" value="When the player is Not CLimbing, make the player respond to Gravity" style="text;html=1;strokeColor=none;fillColor=none;align=center;verticalAlign=middle;whiteSpace=wrap;rounded=0;" vertex="1" parent="1">
                    <mxGeometry x="1082.5" y="1360" width="115" height="85" as="geometry"/>
                </mxCell>
                <mxCell id="105" value="XR Button Controller" style="rounded=1;whiteSpace=wrap;html=1;glass=0;fillStyle=solid;strokeColor=#B20000;fillColor=#e51400;gradientDirection=north;fontColor=#ffffff;" vertex="1" parent="1">
                    <mxGeometry x="1230" y="1285" width="100" height="60" as="geometry"/>
                </mxCell>
                <mxCell id="106" value="Trigger Customizable Events after button presses" style="text;html=1;strokeColor=none;fillColor=none;align=center;verticalAlign=middle;whiteSpace=wrap;rounded=0;" vertex="1" parent="1">
                    <mxGeometry x="1210" y="1377.5" width="160" height="50" as="geometry"/>
                </mxCell>
            </root>
        </mxGraphModel>
    </diagram>
</mxfile>